Coordinates
version=1
nRows=6
nColumns=63
inDegrees=yes

Units are S.I. units (second, meters, Newtons, ...)
If the header above contains a line with 'inDegrees', this indicates whether rotational values are in degrees (yes) or radians (no).

endheader
time	pelvis_tilt	pelvis_list	pelvis_rotation	pelvis_tx	pelvis_ty	pelvis_tz	hip_flexion_r	hip_adduction_r	hip_rotation_r	knee_angle_r	knee_angle_r_beta	ankle_angle_r	subtalar_angle_r	mtp_angle_r	hip_flexion_l	hip_adduction_l	hip_rotation_l	knee_angle_l	knee_angle_l_beta	ankle_angle_l	subtalar_angle_l	mtp_angle_l	L5_S1_Flex_Ext	L5_S1_Lat_Bending	L5_S1_axial_rotation	L4_L5_Flex_Ext	L4_L5_Lat_Bending	L4_L5_axial_rotation	L3_L4_Flex_Ext	L3_L4_Lat_Bending	L3_L4_axial_rotation	L2_L3_Flex_Ext	L2_L3_Lat_Bending	L2_L3_axial_rotation	L1_L2_Flex_Ext	L1_L2_Lat_Bending	L1_L2_axial_rotation	L1_T12_Flex_Ext	L1_T12_Lat_Bending	L1_T12_axial_rotation	Abs_r3	Abs_r2	Abs_r1	Abs_t1	Abs_t2	neck_flexion	neck_bending	neck_rotation	arm_flex_r	arm_add_r	arm_rot_r	elbow_flex_r	pro_sup_r	wrist_flex_r	wrist_dev_r	arm_flex_l	arm_add_l	arm_rot_l	elbow_flex_l	pro_sup_l	wrist_flex_l	wrist_dev_l
      2.00000000	      1.90567337	     -3.34419950	     91.08609882	      0.32604052	      1.03556384	      0.40384742	     -1.75780200	     -2.94150232	    -11.48651535	      5.19671794	      0.09069984	     36.18100978	     13.13676840	      0.00000000	     -1.14151103	      2.76270907	     13.70570562	      4.44689777	      0.07761301	     27.54929581	    -13.58545959	      0.00000000	      0.28525325	     -0.10230045	      0.15672017	      0.52974381	     -0.13605960	      0.16651518	      0.46864257	     -0.24873332	      0.16651518	      0.32601594	     -0.24873332	      0.13713014	      0.26488617	     -0.20861109	      0.12733513	      0.16299371	     -0.15846340	      0.11754012	      2.03753544	     -1.15724319	      0.87163054	      0.00000000	      0.00000000	     28.29387193	     -4.20748631	     -5.53201222	      9.06912873	     -7.94057271	     57.77432618	     45.72774473	      1.55761897	    -11.05995397	     18.51812509	     18.43175076	    -10.51442300	     82.88422131	     41.98364314	     52.40387286	     -8.99012952	    -15.15485923
      2.01785714	      1.89179288	     -3.33886850	     90.73244785	      0.32666626	      1.03553476	      0.40365075	     -1.80223061	     -2.92709882	    -10.71783684	      5.01718301	      0.08756636	     35.95244450	     12.66185844	      0.00000000	     -1.16563379	      2.72920943	     12.27792272	      4.44857894	      0.07764235	     28.02435002	    -12.05430921	      0.00000000	      0.29407871	     -0.10381399	      0.21759699	      0.54613356	     -0.13807260	      0.23119680	      0.48314191	     -0.25241333	      0.23119680	      0.33610255	     -0.25241333	      0.19039736	      0.27308149	     -0.21169749	      0.17679755	      0.16803657	     -0.16080787	      0.16319774	      2.10057479	     -1.17436460	      1.21020917	      0.00000000	      0.00000000	     28.30535770	     -3.99600640	     -5.46278432	      8.95980194	     -8.00361938	     57.64648190	     45.85605293	      1.45214901	    -11.16726487	     18.84046479	     18.36437481	    -10.54779567	     82.82597532	     41.98902085	     52.56352822	     -8.86786040	    -15.19785481
      2.03571429	      1.84825746	     -3.33945211	     90.50626920	      0.32717911	      1.03551951	      0.40333876	     -1.84467504	     -2.97858754	    -10.99240271	      4.90789204	      0.08565888	     35.96771681	     13.36987288	      0.00000000	     -1.27917603	      2.77973893	     13.11724726	      4.23467703	      0.07390906	     27.50537818	    -13.68622172	      0.00000000	      0.30582451	     -0.11094489	      0.28427962	      0.56794670	     -0.14755671	      0.30204709	      0.50243909	     -0.26975141	      0.30204709	      0.34952683	     -0.26975141	      0.24874466	      0.28398864	     -0.22623883	      0.23097719	      0.17474813	     -0.17185364	      0.21320971	      2.18447390	     -1.25503082	      1.58107794	      0.00000000	      0.00000000	     28.31080757	     -3.91477886	     -5.63263560	      8.40760650	     -7.96044765	     56.36082447	     46.18719072	      1.34435295	    -12.12457619	     19.46439050	     18.44851609	    -10.61792087	     83.23489400	     42.18630528	     52.53844975	     -8.95958234	    -14.79876202
      2.05357143	      1.81068331	     -3.25881226	     90.34595125	      0.32778144	      1.03570900	      0.40314686	     -1.99226813	     -2.93727400	     -9.65484000	      4.73212767	      0.08259121	     35.73819770	     11.94726016	      0.00000000	     -1.30434968	      2.70625836	     10.67917040	      4.35826079	      0.07606600	     28.30881371	    -10.48277510	      0.00000000	      0.30409397	     -0.11976378	      0.30616677	      0.56473291	     -0.15928583	      0.32530220	      0.49959598	     -0.29119366	      0.32530220	      0.34754900	     -0.29119366	      0.26789593	      0.28238166	     -0.24422230	      0.24876050	      0.17375929	     -0.18551410	      0.22962508	      2.17211281	     -1.35479185	      1.70280775	      0.00000000	      0.00000000	     28.30839682	     -3.69473916	     -5.60712433	      8.35467664	     -8.07431728	     56.68117981	     46.26868847	      1.19243886	    -11.65351136	     19.36050194	     18.43781918	    -10.78608994	     83.35975903	     42.36956184	     52.95046963	     -8.83304765	    -14.19663130
      2.07142857	      1.82047411	     -3.18409672	     89.88269350	      0.32854002	      1.03589583	      0.40297377	     -1.98459684	     -2.97775147	    -10.14012819	      4.83251128	      0.08434323	     35.91897524	     13.18982408	      0.00000000	     -1.58695584	      2.75156932	     12.70336495	      3.94993319	      0.06893934	     27.03273065	    -14.25948313	      0.00000000	      0.30181956	     -0.11537033	      0.40089950	      0.56050911	     -0.15344254	      0.42595572	      0.49585936	     -0.28051143	      0.42595572	      0.34494958	     -0.28051143	      0.35078706	      0.28026965	     -0.23526319	      0.32573085	      0.17245970	     -0.17870865	      0.30067463	      2.15586696	     -1.30509230	      2.22968276	      0.00000000	      0.00000000	     28.30536506	     -3.53285750	     -5.40680263	      7.65520793	     -7.85348144	     54.66437199	     46.62780422	      1.15912331	    -14.20485628	     20.92803780	     18.47604235	    -10.69147403	     83.84563250	     42.13585590	     55.43729055	     -9.60225960	    -14.43761144
      2.08928571	      1.83538449	     -3.10118991	     89.46856354	      0.32938190	      1.03612825	      0.40280223	     -2.01669641	     -2.95009993	     -9.49368319	      4.86206511	      0.08485904	     35.89114624	     12.92707135	      0.00000000	     -1.72138453	      2.70468305	     12.00022660	      3.89320836	      0.06794930	     27.00290268	    -13.90647307	      0.00000000	      0.30089982	     -0.11238028	      0.47990147	      0.55880106	     -0.14946578	      0.50989531	      0.49434832	     -0.27324142	      0.50989531	      0.34389841	     -0.27324142	      0.41991379	      0.27941558	     -0.22916588	      0.38991995	      0.17193416	     -0.17407706	      0.35992610	      2.14929735	     -1.27126826	      2.66906801	      0.00000000	      0.00000000	     28.29675925	     -3.34209530	     -5.22370176	      7.06232605	     -7.68046725	     53.21591448	     46.91157535	      1.08446681	    -15.87992663	     21.87137391	     18.60596562	    -10.69671566	     84.68431795	     42.07517336	     57.87855908	    -10.57830075	    -14.34965430
